<svg xmlns="http://www.w3.org/2000/svg" xmlns:xlink="http://www.w3.org/1999/xlink" width="667" height="800" viewBox="0 0 667 800">
  <defs>
    <mask id="mask" x="0" y="0" width="667" height="800" maskUnits="userSpaceOnUse">
      <g id="shadowsOpacity_Mask" data-name="shadowsOpacity Mask">
        <image id="shadowsOpacity_Mask-2" data-name="shadowsOpacity Mask" width="667" height="800" xlink:href="backpack1.png"/>
      </g>
    </mask>
  </defs>
  <g id="body" style="isolation: isolate" fill="white">
    <path d="M525,285c-4.21-.47-3.34-1.19-7-2-.09,6.5-4.26,17.39-3,21,10,28.48,7,73.4,7,109,0,15.37-8.56,42.91,1,49,3.83,2.64,4.12.31,10,0v1h1c.32,5.07,2.06,6,3,9,2.61,8.34-1.45,18.9-2,23h-5c-2.39,1.19-4.21-1.06-5,0-2.09,3.48-2,13.59-3,17h-1v1c.45,2.28,3.27,5.76,4,8,1.73,5.28,1.86,12,3,17v20c7.34,34.59-4.22,72.69-15,94-5.73,11.32-13.55,23-28,25v3c-33.25,9.3-82.42,3.36-122,7l-89,1c-40.62,0-99.07,2.8-116-20-28.31-38.14-19.32-131-19-194,.09-17.23,3.26-38.13-1-55-1.12-4.44.36-10,2-12h2c2.54-4.46-.28-19.65-1-23-1.91-8.91-.58-24.65,1-32q.5-15.5,1-31c.95-4.18,5.55-12.2,4-17-1.22-3.77-4.18-12.23-6-16H129c-1.53-2.46-2.29-2.28-3-6,2-3.12,1.34-13.34,2-17a25.25,25.25,0,0,1,8-1c1.69,1.14,4.9,1.07,8,1v-5h5a28.89,28.89,0,0,0,1-9c3.49-5.95-.85-14.64,1-22,2.45-9.75,5-19.89,9-29,6.42-14.62,18.65-28.95,30-39,2.91-2.58,7.82-2.77,10-6,3.46-5.13,3.2-14.26,6-21,5.5.8,17.52-6.53,25-10,9.86-4.57,24.21-7.62,34-11,14.64-5.06,30.05-1.47,47-4,2.82-.42,10.81,2.23,15,1,1.08-.32,1.69-3.21,5-2v2l18-1c12.46,0,25.93.86,37,3v1c-2.08.37-1.92.24-3,1,7.83.92,26.1,5.23,30,4,4.42,1.93,13.29,7.15,17,4,2.49,2.2,1.42,3.3,4,4,.63-1.75.19-1,1-2,1.3,5.83,5.81,2.69,10,7-.33.67-.67,1.33-1,2a25.44,25.44,0,0,1,7,10v6c2.15,4.25,9,4.39,13,7,7.81,5.09,17.75,14.34,23,22,3.92,5.72,5.09,12.34,8,19,.94,2.16,4.1,4.23,5,6,.36.71-1.15,5.08,0,8,1.48,3.76,5.68,9.34,7,13v8c.69,2.65,3.18,5.89,4,8q1,6,2,12a16.53,16.53,0,0,1,8,0C525.57,262.39,525.24,272.62,525,285Z" fill-rule="evenodd"/>
  </g>
  <g id="cords" style="isolation: isolate" fill="white">
    <path d="M220,230V197l143-1h19c.73-.24,2.5-2.81,3-3,7.48-2.86,26.95,2.63,31,2,2.38-.37,1.84-3.36,5-3,2.16.25,4.45,4.34,6,5h19c12.74,1.16,43.5-.74,51,3,5.62,5.5,4.2,19.87,4,31-2.67.92-6.93,1.05-11,1-2.41-1.47-6.38-.17-10-1-10.37-2.36-21.92-3-35-3H426c-2.17-.58-7.5-3.85-12-2l-2,3H385c-10.77-3.81-33.47-1-50-1C295,228,258.4,230,220,230Z" fill-rule="evenodd"/>
    <path d="M214,230h-9V199h2c1.42-1,3.27-1,6-1C215.69,206,214.08,220.18,214,230Z" fill-rule="evenodd"/>
    <path d="M166,201h13a31.24,31.24,0,0,0,3,5c1.29-2.47-.43-.68,2-2v28H161C160.84,219.69,164.44,211.41,166,201Z" fill-rule="evenodd"/>
    <path d="M499,581h6l1,3c2.56,4,2.1,20.26,2,27a71.26,71.26,0,0,1-18,2c-2.34-6.94-1.08-19.3-1-28C489,585,496.94,582.48,499,581Z" fill-rule="evenodd"/>
    <path d="M454,588q.5,15.5,1,31c-9.78.41-20,2-32,2-14.9,0-33.91-2-47,1H336c-25.76,5.57-57.83,3-80-2H216l-64-7V600c2.56-4.28.35-13.08,3-17,2-1.34,6.51-1.1,10-1,3.87,2.4,9.79.76,15,2,10.87,2.59,24.26,2.31,36,5h24c20.93,4.67,41.52,1,62,1a44.07,44.07,0,0,1,13,2c11.35,3.4,42.55-.77,54-1h31c6.53-1.46,17.24.74,25-1C433.33,588.13,446.39,587.54,454,588Z" fill-rule="evenodd"/>
    <path d="M469,588v32h-7c-2.6-7.73-1.08-21.46-1-31Z" fill-rule="evenodd"/>
  </g>
  <g id="pads" style="isolation: isolate" fill="white">
    <path d="M317,120c26.26-.58,54.76-.65,73,6,7.26,2.65,15.77,1.55,19,8q2,23.5,4,47c-2.89,1-7.67,1.06-12,1-7.36-4.59-23.49,1-33-1-8.67-1.84-21.67-1-32-1-29.91,0-56.64,2.81-85,3-1.57-4.61-1.08-12.8-1-19,3.65-6,.68-22.06,3-28a103.22,103.22,0,0,1,25-11C289.33,121.92,308.59,125.51,317,120Z" fill-rule="evenodd"/>
    <path d="M248,266V235c10.26-5.24,34-2,48-2H412c2.52,7.47,1.08,20.74,1,30-9.75,5.84-33.21,3-48,3Z" fill-rule="evenodd"/>
    <path d="M247,274H414q.5,124.49,1,249a17.82,17.82,0,0,0-4,3H249c-5.17-10.14-2-56.84-2-73Z" fill-rule="evenodd"/>
    <path d="M250,533H413l1,3c1.78,2.68,1.77,35.31,0,38-2.38,6-12,4-20,4H337c-4.56,2.85-17.42,1-24,1H251C246.41,571.67,245.39,541.75,250,533Z" fill-rule="evenodd"/>
  </g>
  <g id="stripes" style="isolation: isolate" fill="white">
    <path d="M405,88c17.71-.41,30.95,8.89,44,14,7.54,3,18.28,4.5,21,12,4.67,5.58,2.11,41.76-3,45-3.12-3.91-11.74-5.91-14-9-1-1.37-4.58-15.23-5-17-6.83-2.43-9.23-5.24-14-9-8.47-.29-21.14-5.53-31-8-6.58-1.65-12.34,1.08-18,0v-2C392.22,107.06,399.84,96.67,405,88Z" fill-rule="evenodd"/>
    <path d="M223,92h24c1.86,3,14.71,19.61,17,21-.33.67-.67,1.33-1,2-4.88,2-11.36,2.11-17,4-8.84,3-18.71,7.81-27,11l-3-1c-.76.54-2.57,3.22-4,4l-6,2c-4.41,4.65-2.69,15.24-7,20-6.1,6.74-17.74,10.69-21,20-.8-1-.35-.27-1-2-3.79-5.5-6.72-49.81-2-57,2.25-6.13,25.14-16.81,32-19C213.69,94.86,218.7,96,223,92Z" fill-rule="evenodd"/>
  </g>
  <g mask="url(#mask)">
    <g id="shadows_Image" data-name="shadows Image">
      <image id="shadows_Image-2" data-name="shadows Image" width="667" height="800" xlink:href="backpack2.png"/>
    </g>
  </g>
</svg>
